<svg width="117" height="122" viewBox="0 0 117 122" fill="none" xmlns="http://www.w3.org/2000/svg">
<rect width="117" height="122" rx="50" fill="url(#paint0_linear_12_231)"/>
<path fill-rule="evenodd" clip-rule="evenodd" d="M32.7896 31.6706C32.5319 30.4893 31.4877 29.771 30.4573 30.0664C29.4268 30.3617 28.8003 31.5587 29.0579 32.7401L31.7549 45.1075L34.2649 57.1133C35.3322 62.2184 36.1723 66.2368 37.1692 69.3584C38.1918 72.5605 39.4457 75.0465 41.4577 76.9527C41.6313 77.1173 41.8082 77.2772 41.9882 77.4324C44.0742 79.231 46.4752 80.0496 49.4299 80.4433C52.3103 80.827 55.9147 80.827 60.494 80.827H62.0157C65.9777 80.827 69.0967 80.827 71.6093 80.5357C74.1829 80.2374 76.3005 79.6182 78.2061 78.2505C79.11 77.6017 79.9498 76.8424 80.7109 75.9859C82.3153 74.1803 83.334 71.9639 84.1869 69.1644C85.0196 66.4312 85.7465 62.9542 86.6699 58.5373L86.7236 58.2808C87.2804 55.6178 87.7394 53.4225 87.9167 51.6444C88.1007 49.7989 88.0256 48.0416 87.222 46.4372C86.8783 45.7509 86.4485 45.1262 85.9465 44.5831C84.7727 43.3133 83.2996 42.82 81.6911 42.595C80.1414 42.3782 78.1725 42.3783 75.7835 42.3783L35.1247 42.3784L32.7896 31.6706ZM52.0797 67.4821C52.0797 66.2645 52.9408 65.2773 54.003 65.2773H69.3891C70.4513 65.2773 71.3124 66.2645 71.3124 67.4821C71.3124 68.6998 70.4513 69.6869 69.3891 69.6869H54.003C52.9408 69.6869 52.0797 68.6998 52.0797 67.4821Z" fill="white"/>
<path d="M52.5183 91C54.0091 91 55.2176 89.6146 55.2176 87.9055C55.2176 86.1965 54.0091 84.8111 52.5183 84.8111C51.0275 84.8111 49.819 86.1965 49.819 87.9055C49.819 89.6146 51.0275 91 52.5183 91Z" fill="white"/>
<path d="M68.7143 91C70.2051 91 71.4136 89.6146 71.4136 87.9055C71.4136 86.1965 70.2051 84.8111 68.7143 84.8111C67.2235 84.8111 66.0149 86.1965 66.0149 87.9055C66.0149 89.6146 67.2235 91 68.7143 91Z" fill="white"/>
<defs>
<linearGradient id="paint0_linear_12_231" x1="4.70163e-07" y1="122" x2="124.264" y2="7.91209" gradientUnits="userSpaceOnUse">
<stop stop-color="#207894"/>
<stop offset="1" stop-color="#2ECDFF"/>
</linearGradient>
</defs>
</svg>
