<svg width="152" height="77" viewBox="0 0 152 77" fill="none" xmlns="http://www.w3.org/2000/svg">
<g filter="url(#filter0_d_101_32)">
<rect x="16" y="8" width="120" height="45" rx="22.5" fill="#5264F9"/>
</g>
<path d="M45.2496 36.108C44.0016 36.108 42.8736 35.832 41.8656 35.28C40.8696 34.728 40.0836 33.966 39.5076 32.994C38.9436 32.01 38.6616 30.912 38.6616 29.7C38.6616 28.488 38.9436 27.396 39.5076 26.424C40.0836 25.44 40.8756 24.672 41.8836 24.12C42.8916 23.568 44.0196 23.292 45.2676 23.292C46.2036 23.292 47.0676 23.448 47.8596 23.76C48.6516 24.072 49.3236 24.528 49.8756 25.128L49.0296 25.974C48.0456 24.978 46.8036 24.48 45.3036 24.48C44.3076 24.48 43.4016 24.708 42.5856 25.164C41.7696 25.62 41.1276 26.244 40.6596 27.036C40.2036 27.828 39.9756 28.716 39.9756 29.7C39.9756 30.684 40.2036 31.572 40.6596 32.364C41.1276 33.156 41.7696 33.78 42.5856 34.236C43.4016 34.692 44.3076 34.92 45.3036 34.92C46.8156 34.92 48.0576 34.416 49.0296 33.408L49.8756 34.254C49.3236 34.854 48.6456 35.316 47.8416 35.64C47.0496 35.952 46.1856 36.108 45.2496 36.108ZM55.8932 36.09C54.9812 36.09 54.1592 35.886 53.4272 35.478C52.6952 35.058 52.1192 34.482 51.6992 33.75C51.2792 33.018 51.0692 32.19 51.0692 31.266C51.0692 30.342 51.2792 29.514 51.6992 28.782C52.1192 28.05 52.6952 27.48 53.4272 27.072C54.1592 26.664 54.9812 26.46 55.8932 26.46C56.8052 26.46 57.6272 26.664 58.3592 27.072C59.0912 27.48 59.6612 28.05 60.0692 28.782C60.4892 29.514 60.6992 30.342 60.6992 31.266C60.6992 32.19 60.4892 33.018 60.0692 33.75C59.6612 34.482 59.0912 35.058 58.3592 35.478C57.6272 35.886 56.8052 36.09 55.8932 36.09ZM55.8932 34.956C56.5652 34.956 57.1652 34.806 57.6932 34.506C58.2332 34.194 58.6532 33.756 58.9532 33.192C59.2532 32.628 59.4032 31.986 59.4032 31.266C59.4032 30.546 59.2532 29.904 58.9532 29.34C58.6532 28.776 58.2332 28.344 57.6932 28.044C57.1652 27.732 56.5652 27.576 55.8932 27.576C55.2212 27.576 54.6152 27.732 54.0752 28.044C53.5472 28.344 53.1272 28.776 52.8152 29.34C52.5152 29.904 52.3652 30.546 52.3652 31.266C52.3652 31.986 52.5152 32.628 52.8152 33.192C53.1272 33.756 53.5472 34.194 54.0752 34.506C54.6152 34.806 55.2212 34.956 55.8932 34.956ZM68.1324 26.46C69.3204 26.46 70.2624 26.808 70.9584 27.504C71.6664 28.188 72.0204 29.19 72.0204 30.51V36H70.7424V30.636C70.7424 29.652 70.4964 28.902 70.0044 28.386C69.5124 27.87 68.8104 27.612 67.8984 27.612C66.8784 27.612 66.0684 27.918 65.4684 28.53C64.8804 29.13 64.5864 29.964 64.5864 31.032V36H63.3084V26.532H64.5324V28.278C64.8804 27.702 65.3604 27.258 65.9724 26.946C66.5964 26.622 67.3164 26.46 68.1324 26.46ZM78.622 23.634C78.07 23.634 77.65 23.784 77.362 24.084C77.086 24.384 76.948 24.828 76.948 25.416V26.532H79.864V27.612H76.984V36H75.706V27.612H74.014V26.532H75.706V25.362C75.706 24.498 75.952 23.814 76.444 23.31C76.948 22.806 77.656 22.554 78.568 22.554C78.928 22.554 79.276 22.608 79.612 22.716C79.948 22.812 80.23 22.956 80.458 23.148L80.026 24.102C79.654 23.79 79.186 23.634 78.622 23.634ZM83.032 26.532H84.31V36H83.032V26.532ZM83.68 24.462C83.416 24.462 83.194 24.372 83.014 24.192C82.834 24.012 82.744 23.796 82.744 23.544C82.744 23.304 82.834 23.094 83.014 22.914C83.194 22.734 83.416 22.644 83.68 22.644C83.944 22.644 84.166 22.734 84.346 22.914C84.526 23.082 84.616 23.286 84.616 23.526C84.616 23.79 84.526 24.012 84.346 24.192C84.166 24.372 83.944 24.462 83.68 24.462ZM89.1066 28.386C89.4066 27.75 89.8506 27.27 90.4386 26.946C91.0386 26.622 91.7766 26.46 92.6526 26.46V27.702L92.3466 27.684C91.3506 27.684 90.5706 27.99 90.0066 28.602C89.4426 29.214 89.1606 30.072 89.1606 31.176V36H87.8826V26.532H89.1066V28.386ZM106.775 26.46C107.963 26.46 108.893 26.802 109.565 27.486C110.249 28.17 110.591 29.178 110.591 30.51V36H109.313V30.636C109.313 29.652 109.073 28.902 108.593 28.386C108.125 27.87 107.459 27.612 106.595 27.612C105.611 27.612 104.837 27.918 104.273 28.53C103.709 29.13 103.427 29.964 103.427 31.032V36H102.149V30.636C102.149 29.652 101.909 28.902 101.429 28.386C100.961 27.87 100.289 27.612 99.4126 27.612C98.4406 27.612 97.6666 27.918 97.0906 28.53C96.5266 29.13 96.2446 29.964 96.2446 31.032V36H94.9666V26.532H96.1906V28.26C96.5266 27.684 96.9946 27.24 97.5946 26.928C98.1946 26.616 98.8846 26.46 99.6646 26.46C100.457 26.46 101.141 26.628 101.717 26.964C102.305 27.3 102.743 27.798 103.031 28.458C103.379 27.834 103.877 27.348 104.525 27C105.185 26.64 105.935 26.46 106.775 26.46Z" fill="white"/>
<defs>
<filter id="filter0_d_101_32" x="0" y="0" width="152" height="77" filterUnits="userSpaceOnUse" color-interpolation-filters="sRGB">
<feFlood flood-opacity="0" result="BackgroundImageFix"/>
<feColorMatrix in="SourceAlpha" type="matrix" values="0 0 0 0 0 0 0 0 0 0 0 0 0 0 0 0 0 0 127 0" result="hardAlpha"/>
<feOffset dy="8"/>
<feGaussianBlur stdDeviation="8"/>
<feColorMatrix type="matrix" values="0 0 0 0 0.105882 0 0 0 0 0.223529 0 0 0 0 1 0 0 0 0.2 0"/>
<feBlend mode="normal" in2="BackgroundImageFix" result="effect1_dropShadow_101_32"/>
<feBlend mode="normal" in="SourceGraphic" in2="effect1_dropShadow_101_32" result="shape"/>
</filter>
</defs>
</svg>
