<svg width="16" height="16" viewBox="0 0 16 16" fill="none" xmlns="http://www.w3.org/2000/svg">
<path d="M3.33331 6.66667C3.33331 5.42581 3.33331 4.80539 3.49646 4.30328C3.82618 3.28848 4.6218 2.49287 5.63659 2.16314C6.1387 2 6.75913 2 7.99998 2C9.24084 2 9.86126 2 10.3634 2.16314C11.3782 2.49287 12.1738 3.28848 12.5035 4.30328C12.6666 4.80539 12.6666 5.42581 12.6666 6.66667V11.5916C12.6666 12.8697 12.6666 13.5087 12.4387 13.8467C12.1602 14.2595 11.6748 14.4828 11.1801 14.4255C10.7751 14.3787 10.2899 13.9628 9.31952 13.131C8.89237 12.7649 8.67879 12.5818 8.44419 12.4989C8.15676 12.3974 7.8432 12.3974 7.55577 12.4989C7.32117 12.5818 7.1076 12.7649 6.68044 13.131C5.71005 13.9628 5.22485 14.3787 4.81989 14.4255C4.32517 14.4828 3.83979 14.2595 3.56128 13.8467C3.33331 13.5087 3.33331 12.8697 3.33331 11.5916V6.66667Z" fill="black"/>
</svg>
