<svg width="16" height="16" viewBox="0 0 16 16" fill="none" xmlns="http://www.w3.org/2000/svg">
<path fill-rule="evenodd" clip-rule="evenodd" d="M13.3953 7.99998C13.3953 11.6819 10.7299 14.6666 7.44183 14.6666C4.15381 14.6666 1.48834 11.6819 1.48834 7.99998C1.48834 4.31808 4.15381 1.33331 7.44183 1.33331C10.7299 1.33331 13.3953 4.31808 13.3953 7.99998ZM7.44183 4.16665C7.68843 4.16665 7.88834 4.3905 7.88834 4.66665V8.66665C7.88834 8.94279 7.68843 9.16665 7.44183 9.16665C7.19523 9.16665 6.99532 8.94279 6.99532 8.66665V4.66665C6.99532 4.3905 7.19523 4.16665 7.44183 4.16665ZM7.44183 11.3333C7.77063 11.3333 8.03718 11.0348 8.03718 10.6666C8.03718 10.2985 7.77063 9.99998 7.44183 9.99998C7.11303 9.99998 6.84648 10.2985 6.84648 10.6666C6.84648 11.0348 7.11303 11.3333 7.44183 11.3333Z" fill="black"/>
</svg>
