<svg width="117" height="122" viewBox="0 0 117 122" fill="none" xmlns="http://www.w3.org/2000/svg">
<rect width="117" height="122" rx="50" fill="url(#paint0_linear_16_16)"/>
<path fill-rule="evenodd" clip-rule="evenodd" d="M43.4823 38.7653C43.4823 34.4767 46.9502 31 51.2281 31H65.5618C69.3928 31 72.4984 34.1134 72.4984 37.954C72.4984 39.4903 73.7407 40.7356 75.273 40.7356H76.9083C81.3056 40.7356 85.1732 44.157 84.994 48.8457C84.7643 54.8569 83.5997 64.4992 78.9291 73.0324C77.663 75.3454 75.9722 77.6176 74.1444 79.7347L74.0068 79.8941C71.3773 82.9399 69.1849 85.4795 66.828 87.2106C64.2928 89.0725 61.5871 90 57.9903 90C54.3936 90 51.6878 89.0725 49.1527 87.2106C46.7957 85.4795 44.6033 82.9399 41.9739 79.8941L41.8363 79.7347C40.0085 77.6176 38.3176 75.3454 37.0516 73.0324C32.5313 64.7738 31.292 56.0553 31.0103 50.4615C30.7731 45.7501 34.6684 42.3582 39.0414 42.3582H39.8984C41.8777 42.3582 43.4823 40.7496 43.4823 38.7653ZM60.0711 52.5575C60.0711 51.4053 59.1394 50.4713 57.9901 50.4713C56.8409 50.4713 55.9092 51.4053 55.9092 52.5575V58.8161H49.6663C48.517 58.8161 47.5853 59.7501 47.5853 60.9023C47.5853 62.0545 48.517 62.9885 49.6663 62.9885H55.9092V69.2472C55.9092 70.3993 56.8409 71.3334 57.9901 71.3334C59.1394 71.3334 60.0711 70.3993 60.0711 69.2472V62.9885H66.314C67.4633 62.9885 68.395 62.0545 68.395 60.9023C68.395 59.7501 67.4633 58.8161 66.314 58.8161H60.0711V52.5575Z" fill="white"/>
<defs>
<linearGradient id="paint0_linear_16_16" x1="4.70163e-07" y1="122" x2="124.264" y2="7.91209" gradientUnits="userSpaceOnUse">
<stop stop-color="#942050"/>
<stop offset="1" stop-color="#FF2E54"/>
</linearGradient>
</defs>
</svg>
