<svg width="401" height="279" viewBox="0 0 401 279" fill="none" xmlns="http://www.w3.org/2000/svg">
<path d="M439.232 25.1122C438.404 148.927 261.308 353.992 218.964 247.836C176.62 141.68 0.86675 146.001 1.69466 22.1865C2.52257 -101.628 101.14 -201.345 221.962 -200.537C342.785 -199.729 440.06 -98.7026 439.232 25.1122Z" fill="url(#paint0_linear_105_32)"/>
<path fill-rule="evenodd" clip-rule="evenodd" d="M270.5 196C293.972 196 313 177.868 313 155.5C313 133.132 293.972 115 270.5 115C247.028 115 228 133.132 228 155.5C228 177.868 247.028 196 270.5 196ZM270.5 188.713C251.251 188.713 235.647 173.843 235.647 155.5C235.647 137.157 251.251 122.287 270.5 122.287C289.749 122.287 305.353 137.157 305.353 155.5C305.353 173.843 289.749 188.713 270.5 188.713ZM290.359 151.214L290.346 147.652L284.841 147.67C284.731 147.447 284.612 147.229 284.485 147.015C283.558 145.44 282.202 144.21 280.417 143.326C278.633 142.441 276.452 142.003 273.874 142.012L261.288 142.054L261.308 147.749L256.667 147.765L256.679 151.327L261.32 151.312L261.328 153.491L256.687 153.507L256.699 157.069L261.34 157.054L261.406 176.179L265.93 176.163L265.883 162.781L273.946 162.754C276.524 162.745 278.702 162.339 280.481 161.536C282.259 160.718 283.606 159.534 284.523 157.984C284.714 157.661 284.885 157.325 285.035 156.974L290.379 156.956L290.366 153.394L285.854 153.409C285.877 153.073 285.888 152.73 285.886 152.378C285.885 151.986 285.866 151.604 285.83 151.229L290.359 151.214ZM279.543 147.688C279.156 147.299 278.701 146.957 278.179 146.661C277.083 146.024 275.652 145.709 273.887 145.715L265.824 145.742L265.831 147.734L279.543 147.688ZM281.266 151.245L265.843 151.296L265.851 153.476L281.313 153.424C281.347 153.106 281.364 152.778 281.363 152.44C281.362 152.033 281.329 151.634 281.266 151.245ZM279.836 156.992L265.863 157.039L265.87 159.101L273.933 159.074C275.699 159.068 277.127 158.782 278.219 158.216C278.861 157.883 279.4 157.475 279.836 156.992Z" fill="white"/>
<defs>
<linearGradient id="paint0_linear_105_32" x1="34.0814" y1="-173.769" x2="367.925" y2="185.222" gradientUnits="userSpaceOnUse">
<stop offset="0.0125597" stop-color="#5264F9"/>
<stop offset="1" stop-color="#3AF9EF"/>
</linearGradient>
</defs>
</svg>
