<svg width="228" height="80" viewBox="0 0 228 80" fill="none" xmlns="http://www.w3.org/2000/svg">
<g filter="url(#filter0_d_5_96)">
<rect x="16" y="8" width="196" height="48" rx="24" fill="#5264F9"/>
</g>
<path d="M97.709 25.5111V38.1111H96.611L88.511 27.8871V38.1111H87.179V25.5111H88.277L96.395 35.7351V25.5111H97.709ZM109.796 33.7731H101.876C101.948 34.7571 102.326 35.5551 103.01 36.1671C103.694 36.7671 104.558 37.0671 105.602 37.0671C106.19 37.0671 106.73 36.9651 107.222 36.7611C107.714 36.5451 108.14 36.2331 108.5 35.8251L109.22 36.6531C108.8 37.1571 108.272 37.5411 107.636 37.8051C107.012 38.0691 106.322 38.2011 105.566 38.2011C104.594 38.2011 103.73 37.9971 102.974 37.5891C102.23 37.1691 101.648 36.5931 101.228 35.8611C100.808 35.1291 100.598 34.3011 100.598 33.3771C100.598 32.4531 100.796 31.6251 101.192 30.8931C101.6 30.1611 102.152 29.5911 102.848 29.1831C103.556 28.7751 104.348 28.5711 105.224 28.5711C106.1 28.5711 106.886 28.7751 107.582 29.1831C108.278 29.5911 108.824 30.1611 109.22 30.8931C109.616 31.6131 109.814 32.4411 109.814 33.3771L109.796 33.7731ZM105.224 29.6691C104.312 29.6691 103.544 29.9631 102.92 30.5511C102.308 31.1271 101.96 31.8831 101.876 32.8191H108.59C108.506 31.8831 108.152 31.1271 107.528 30.5511C106.916 29.9631 106.148 29.6691 105.224 29.6691ZM118.181 38.1111L115.175 34.1511L112.151 38.1111H110.711L114.455 33.2511L110.891 28.6431H112.331L115.175 32.3511L118.019 28.6431H119.423L115.859 33.2511L119.639 38.1111H118.181ZM126.752 37.5351C126.512 37.7511 126.212 37.9191 125.852 38.0391C125.504 38.1471 125.138 38.2011 124.754 38.2011C123.866 38.2011 123.182 37.9611 122.702 37.4811C122.222 37.0011 121.982 36.3231 121.982 35.4471V29.7231H120.29V28.6431H121.982V26.5731H123.26V28.6431H126.14V29.7231H123.26V35.3751C123.26 35.9391 123.398 36.3711 123.674 36.6711C123.962 36.9591 124.37 37.1031 124.898 37.1031C125.162 37.1031 125.414 37.0611 125.654 36.9771C125.906 36.8931 126.122 36.7731 126.302 36.6171L126.752 37.5351Z" fill="white"/>
<defs>
<filter id="filter0_d_5_96" x="0" y="0" width="228" height="80" filterUnits="userSpaceOnUse" color-interpolation-filters="sRGB">
<feFlood flood-opacity="0" result="BackgroundImageFix"/>
<feColorMatrix in="SourceAlpha" type="matrix" values="0 0 0 0 0 0 0 0 0 0 0 0 0 0 0 0 0 0 127 0" result="hardAlpha"/>
<feOffset dy="8"/>
<feGaussianBlur stdDeviation="8"/>
<feColorMatrix type="matrix" values="0 0 0 0 0.105882 0 0 0 0 0.223529 0 0 0 0 1 0 0 0 0.2 0"/>
<feBlend mode="normal" in2="BackgroundImageFix" result="effect1_dropShadow_5_96"/>
<feBlend mode="normal" in="SourceGraphic" in2="effect1_dropShadow_5_96" result="shape"/>
</filter>
</defs>
</svg>
