<svg width="16" height="16" viewBox="0 0 16 16" fill="none" xmlns="http://www.w3.org/2000/svg">
<path fill-rule="evenodd" clip-rule="evenodd" d="M3.38116 5.99998C4.89688 3.37467 5.65474 2.06202 6.64417 1.62149C7.50719 1.23725 8.49272 1.23725 9.35575 1.62149C10.3452 2.06202 11.103 3.37467 12.6188 5.99998C14.1345 8.62529 14.8923 9.93794 14.7791 11.0151C14.6804 11.9546 14.1876 12.8081 13.4233 13.3634C12.5471 14 11.0314 14 7.99996 14C4.96851 14 3.45279 14 2.57657 13.3634C1.8123 12.8081 1.31953 11.9546 1.22078 11.0151C1.10757 9.93794 1.86543 8.62529 3.38116 5.99998ZM7.99992 4.16665C8.27606 4.16665 8.49992 4.3905 8.49992 4.66665V8.66665C8.49992 8.94279 8.27606 9.16665 7.99992 9.16665C7.72378 9.16665 7.49992 8.94279 7.49992 8.66665V4.66665C7.49992 4.3905 7.72378 4.16665 7.99992 4.16665ZM7.99992 11.3333C8.36811 11.3333 8.66659 11.0348 8.66659 10.6666C8.66659 10.2985 8.36811 9.99998 7.99992 9.99998C7.63173 9.99998 7.33325 10.2985 7.33325 10.6666C7.33325 11.0348 7.63173 11.3333 7.99992 11.3333Z" fill="black"/>
</svg>
