<svg width="351" height="385" viewBox="0 0 351 385" fill="none" xmlns="http://www.w3.org/2000/svg">
<g filter="url(#filter0_d_102_8)">
<ellipse cx="151.206" cy="143.579" rx="145.301" ry="152.143" transform="rotate(28 151.206 143.579)" fill="url(#paint0_linear_102_8)"/>
<ellipse cx="108.317" cy="169.727" rx="145.301" ry="152.143" transform="rotate(28 108.317 169.727)" fill="url(#paint1_linear_102_8)"/>
<ellipse cx="97.0833" cy="136.341" rx="145.301" ry="152.143" transform="rotate(28 97.0833 136.341)" fill="url(#paint2_linear_102_8)"/>
<path d="M63.1 177.4L56.492 197H54.308L48.568 180.284L42.8 197H40.644L34.036 177.4H36.164L41.82 194.256L47.672 177.4H49.604L55.372 194.34L61.112 177.4H63.1ZM78.1819 190.252H65.8619C65.9739 191.783 66.5619 193.024 67.6259 193.976C68.6899 194.909 70.0339 195.376 71.6579 195.376C72.5726 195.376 73.4126 195.217 74.1779 194.9C74.9433 194.564 75.6059 194.079 76.1659 193.444L77.2859 194.732C76.6326 195.516 75.8113 196.113 74.8219 196.524C73.8513 196.935 72.7779 197.14 71.6019 197.14C70.0899 197.14 68.7459 196.823 67.5699 196.188C66.4126 195.535 65.5073 194.639 64.8539 193.5C64.2006 192.361 63.8739 191.073 63.8739 189.636C63.8739 188.199 64.1819 186.911 64.7979 185.772C65.4326 184.633 66.2913 183.747 67.3739 183.112C68.4753 182.477 69.7073 182.16 71.0699 182.16C72.4326 182.16 73.6553 182.477 74.7379 183.112C75.8206 183.747 76.6699 184.633 77.2859 185.772C77.9019 186.892 78.2099 188.18 78.2099 189.636L78.1819 190.252ZM71.0699 183.868C69.6513 183.868 68.4566 184.325 67.4859 185.24C66.5339 186.136 65.9926 187.312 65.8619 188.768H76.3059C76.1753 187.312 75.6246 186.136 74.6539 185.24C73.7019 184.325 72.5073 183.868 71.0699 183.868ZM82.2564 176.224H84.2444V197H82.2564V176.224ZM95.8799 197.14C94.4239 197.14 93.1172 196.823 91.9599 196.188C90.8212 195.553 89.9252 194.667 89.2719 193.528C88.6186 192.371 88.2919 191.073 88.2919 189.636C88.2919 188.199 88.6186 186.911 89.2719 185.772C89.9252 184.633 90.8212 183.747 91.9599 183.112C93.1172 182.477 94.4239 182.16 95.8799 182.16C97.1492 182.16 98.2786 182.412 99.2679 182.916C100.276 183.401 101.069 184.12 101.648 185.072L100.164 186.08C99.6786 185.352 99.0626 184.811 98.3159 184.456C97.5692 184.083 96.7572 183.896 95.8799 183.896C94.8159 183.896 93.8546 184.139 92.9959 184.624C92.1559 185.091 91.4932 185.763 91.0079 186.64C90.5412 187.517 90.3079 188.516 90.3079 189.636C90.3079 190.775 90.5412 191.783 91.0079 192.66C91.4932 193.519 92.1559 194.191 92.9959 194.676C93.8546 195.143 94.8159 195.376 95.8799 195.376C96.7572 195.376 97.5692 195.199 98.3159 194.844C99.0626 194.489 99.6786 193.948 100.164 193.22L101.648 194.228C101.069 195.18 100.276 195.908 99.2679 196.412C98.2599 196.897 97.1306 197.14 95.8799 197.14ZM111.327 197.14C109.908 197.14 108.63 196.823 107.491 196.188C106.352 195.535 105.456 194.639 104.803 193.5C104.15 192.361 103.823 191.073 103.823 189.636C103.823 188.199 104.15 186.911 104.803 185.772C105.456 184.633 106.352 183.747 107.491 183.112C108.63 182.477 109.908 182.16 111.327 182.16C112.746 182.16 114.024 182.477 115.163 183.112C116.302 183.747 117.188 184.633 117.823 185.772C118.476 186.911 118.803 188.199 118.803 189.636C118.803 191.073 118.476 192.361 117.823 193.5C117.188 194.639 116.302 195.535 115.163 196.188C114.024 196.823 112.746 197.14 111.327 197.14ZM111.327 195.376C112.372 195.376 113.306 195.143 114.127 194.676C114.967 194.191 115.62 193.509 116.087 192.632C116.554 191.755 116.787 190.756 116.787 189.636C116.787 188.516 116.554 187.517 116.087 186.64C115.62 185.763 114.967 185.091 114.127 184.624C113.306 184.139 112.372 183.896 111.327 183.896C110.282 183.896 109.339 184.139 108.499 184.624C107.678 185.091 107.024 185.763 106.539 186.64C106.072 187.517 105.839 188.516 105.839 189.636C105.839 190.756 106.072 191.755 106.539 192.632C107.024 193.509 107.678 194.191 108.499 194.676C109.339 195.143 110.282 195.376 111.327 195.376ZM141.23 182.16C143.078 182.16 144.525 182.692 145.57 183.756C146.634 184.82 147.166 186.388 147.166 188.46V197H145.178V188.656C145.178 187.125 144.805 185.959 144.058 185.156C143.33 184.353 142.294 183.952 140.95 183.952C139.419 183.952 138.215 184.428 137.338 185.38C136.461 186.313 136.022 187.611 136.022 189.272V197H134.034V188.656C134.034 187.125 133.661 185.959 132.914 185.156C132.186 184.353 131.141 183.952 129.778 183.952C128.266 183.952 127.062 184.428 126.166 185.38C125.289 186.313 124.85 187.611 124.85 189.272V197H122.862V182.272H124.766V184.96C125.289 184.064 126.017 183.373 126.95 182.888C127.883 182.403 128.957 182.16 130.17 182.16C131.402 182.16 132.466 182.421 133.362 182.944C134.277 183.467 134.958 184.241 135.406 185.268C135.947 184.297 136.722 183.541 137.73 183C138.757 182.44 139.923 182.16 141.23 182.16ZM165.436 190.252H153.116C153.228 191.783 153.816 193.024 154.88 193.976C155.944 194.909 157.288 195.376 158.912 195.376C159.827 195.376 160.667 195.217 161.432 194.9C162.197 194.564 162.86 194.079 163.42 193.444L164.54 194.732C163.887 195.516 163.065 196.113 162.076 196.524C161.105 196.935 160.032 197.14 158.856 197.14C157.344 197.14 156 196.823 154.824 196.188C153.667 195.535 152.761 194.639 152.108 193.5C151.455 192.361 151.128 191.073 151.128 189.636C151.128 188.199 151.436 186.911 152.052 185.772C152.687 184.633 153.545 183.747 154.628 183.112C155.729 182.477 156.961 182.16 158.324 182.16C159.687 182.16 160.909 182.477 161.992 183.112C163.075 183.747 163.924 184.633 164.54 185.772C165.156 186.892 165.464 188.18 165.464 189.636L165.436 190.252ZM158.324 183.868C156.905 183.868 155.711 184.325 154.74 185.24C153.788 186.136 153.247 187.312 153.116 188.768H163.56C163.429 187.312 162.879 186.136 161.908 185.24C160.956 184.325 159.761 183.868 158.324 183.868Z" fill="white"/>
<path fill-rule="evenodd" clip-rule="evenodd" d="M96.5 157C119.972 157 139 138.868 139 116.5C139 94.1325 119.972 76 96.5 76C73.0279 76 54 94.1325 54 116.5C54 138.868 73.0279 157 96.5 157ZM96.5 149.713C77.2514 149.713 61.6473 134.843 61.6473 116.5C61.6473 98.1572 77.2514 83.2874 96.5 83.2874C115.749 83.2874 131.353 98.1572 131.353 116.5C131.353 134.843 115.749 149.713 96.5 149.713ZM116.359 112.214L116.346 108.652L110.841 108.67C110.731 108.447 110.612 108.229 110.485 108.015C109.558 106.44 108.202 105.21 106.417 104.326C104.633 103.441 102.452 103.003 99.8737 103.012L87.2878 103.054L87.3076 108.749L82.667 108.765L82.6794 112.327L87.32 112.312L87.3275 114.491L82.6869 114.507L82.6993 118.069L87.3399 118.054L87.4062 137.179L91.9296 137.163L91.8832 123.781L99.9457 123.754C102.524 123.745 104.702 123.339 106.481 122.536C108.259 121.718 109.606 120.534 110.523 118.984C110.714 118.661 110.885 118.325 111.035 117.974L116.379 117.956L116.366 114.394L111.854 114.409C111.877 114.073 111.888 113.73 111.886 113.378C111.885 112.986 111.866 112.604 111.83 112.229L116.359 112.214ZM105.543 108.688C105.156 108.299 104.701 107.957 104.179 107.661C103.083 107.024 101.652 106.709 99.8866 106.715L91.8241 106.742L91.831 108.734L105.543 108.688ZM107.266 112.245L91.8434 112.296L91.8509 114.476L107.313 114.424C107.347 114.106 107.364 113.778 107.363 113.44C107.362 113.033 107.329 112.634 107.266 112.245ZM105.836 117.992L91.8633 118.039L91.8704 120.101L99.9329 120.074C101.699 120.068 103.127 119.782 104.219 119.216C104.861 118.883 105.4 118.475 105.836 117.992Z" fill="white"/>
</g>
<defs>
<filter id="filter0_d_102_8" x="-53.7796" y="-14.3532" width="355.848" height="342.775" filterUnits="userSpaceOnUse" color-interpolation-filters="sRGB">
<feFlood flood-opacity="0" result="BackgroundImageFix"/>
<feColorMatrix in="SourceAlpha" type="matrix" values="0 0 0 0 0 0 0 0 0 0 0 0 0 0 0 0 0 0 127 0" result="hardAlpha"/>
<feOffset dy="4"/>
<feGaussianBlur stdDeviation="2"/>
<feComposite in2="hardAlpha" operator="out"/>
<feColorMatrix type="matrix" values="0 0 0 0 0 0 0 0 0 0 0 0 0 0 0 0 0 0 0.25 0"/>
<feBlend mode="normal" in2="BackgroundImageFix" result="effect1_dropShadow_102_8"/>
<feBlend mode="normal" in="SourceGraphic" in2="effect1_dropShadow_102_8" result="shape"/>
</filter>
<linearGradient id="paint0_linear_102_8" x1="343.977" y1="-47.4644" x2="-104.491" y2="304.002" gradientUnits="userSpaceOnUse">
<stop stop-color="#C72FF8"/>
<stop offset="0.977157" stop-color="#C630F8" stop-opacity="0"/>
</linearGradient>
<linearGradient id="paint1_linear_102_8" x1="-10.9783" y1="45.6788" x2="264.99" y2="293.2" gradientUnits="userSpaceOnUse">
<stop offset="0.0303488" stop-color="#C630F8" stop-opacity="0"/>
<stop offset="1" stop-color="#2F56F8"/>
</linearGradient>
<linearGradient id="paint2_linear_102_8" x1="-27.5781" y1="3.21557" x2="200.841" y2="240.402" gradientUnits="userSpaceOnUse">
<stop offset="0.0125597" stop-color="#5264F9"/>
<stop offset="1" stop-color="#3AF9EF"/>
</linearGradient>
</defs>
</svg>
