<svg width="168" height="166" viewBox="0 0 168 166" fill="none" xmlns="http://www.w3.org/2000/svg">
<path fill-rule="evenodd" clip-rule="evenodd" d="M84 166C130.392 166 168 128.84 168 83C168 37.1604 130.392 0 84 0C37.6081 0 0 37.1604 0 83C0 128.84 37.6081 166 84 166ZM84 151.065C45.9557 151.065 15.1146 120.591 15.1146 83C15.1146 45.4086 45.9557 14.9347 84 14.9347C122.044 14.9347 152.885 45.4086 152.885 83C152.885 120.591 122.044 151.065 84 151.065ZM124.06 74.2691L124.036 67.1441L113.025 67.1824C112.805 66.7371 112.568 66.3004 112.313 65.8724C110.459 62.7225 107.748 60.2632 104.179 58.4943C100.611 56.7255 96.2484 55.85 91.0922 55.868L65.9204 55.9555L65.9585 67.3461L56.6773 67.3783L56.7012 74.5033L65.9824 74.471L65.997 78.8304L56.7158 78.8626L56.7396 85.9876L66.0208 85.9553L66.1488 124.205L75.1956 124.174L75.1061 97.4082L91.231 97.3521C96.3872 97.3342 100.744 96.5221 104.301 94.916C107.858 93.2786 110.553 90.9099 112.387 87.8097C112.768 87.1643 113.11 86.4912 113.412 85.7905L124.099 85.7534L124.075 78.6284L115.05 78.6598C115.096 77.9887 115.117 77.3011 115.115 76.597C115.112 75.8143 115.075 75.0488 115.003 74.3005L124.06 74.2691ZM102.43 67.2192C101.655 66.4423 100.745 65.7579 99.7014 65.1662C97.5097 63.8926 94.6482 63.2619 91.1169 63.2742L74.992 63.3302L75.0054 67.3146L102.43 67.2192ZM105.874 74.3323L75.0292 74.4396L75.0438 78.7989L105.967 78.6914C106.037 78.0544 106.071 77.3981 106.068 76.7223C106.066 75.9084 106.001 75.1118 105.874 74.3323ZM103.013 85.8267L75.0676 85.9239L75.0814 90.0488L91.2063 89.9928C94.7376 89.9805 97.595 89.4081 99.7788 88.2755C101.062 87.6097 102.14 86.7934 103.013 85.8267Z" fill="url(#paint0_linear_4_15)"/>
<defs>
<linearGradient id="paint0_linear_4_15" x1="84" y1="0" x2="84" y2="166" gradientUnits="userSpaceOnUse">
<stop stop-color="#E858D1"/>
<stop offset="0.0812499" stop-color="#E858D1"/>
<stop offset="1" stop-color="#0BC4FE"/>
</linearGradient>
</defs>
</svg>
